<svg xmlns="http://www.w3.org/2000/svg" viewBox="0 0 1920 1080" width="1920" height="1080" font-family="system-ui, sans-serif">
  <defs>
    <linearGradient id="bg" x1="0%" y1="0%" x2="0%" y2="100%"><stop offset="0%" stop-color="#c7ddf5"/><stop offset="100%" stop-color="#b8d4f0"/></linearGradient>
    <radialGradient id="sky" cx="50%" cy="18%" r="120%">
      <stop offset="0%" stop-color="#2a3550"/>
      <stop offset="55%" stop-color="#1a2138"/>
      <stop offset="100%" stop-color="#131726"/>
    </radialGradient>
    <linearGradient id="botfade" x1="0" y1="1" x2="0" y2="0">
      <stop offset="0%" stop-color="#0e0e1c" stop-opacity="0.87"/>
      <stop offset="100%" stop-color="#0e0e1c" stop-opacity="0"/>
    </linearGradient>
  </defs>

  <rect width="1920" height="1080" fill="url(#bg)"/>
  <text x="960" y="28" text-anchor="middle" font-size="18" font-weight="700" fill="#4b5563" letter-spacing="1">HAT - ROOF FOCUS - FULL-BLEED VIEWER - /book/hat</text>
  <text x="40" y="52" fill="#8b5cf6" font-size="18" font-weight="bold">DESKTOP (16:9)</text>
  <text x="1500" y="52" fill="#d946ef" font-size="18" font-weight="bold">MOBILE</text>

  <!-- ===================== DESKTOP ===================== -->
  <g id="desktop" transform="translate(40, 60)">
    <rect width="1280" height="720" rx="8" fill="#0e0e1c" stroke="#2a2a44"/>
    <use href="includes/header-desktop.svg#desktop-header" x="0" y="0"/>

    <!-- chapter tabs IN the navbar -->
    <g transform="translate(330, 12)">
      <rect width="116" height="34" rx="8" fill="#2563eb"/>
      <text x="58" y="23" text-anchor="middle" font-size="14" font-weight="700" fill="#ffffff">The Hat</text>
      <text x="140" y="23" font-size="14" font-weight="700" fill="#374151">The Coat</text>
      <text x="250" y="23" font-size="14" font-weight="700" fill="#374151">The Boots</text>
    </g>

    <!-- FULL-BLEED STAGE (dark sky) -->
    <g id="stage" transform="translate(0, 56)">
      <rect width="1280" height="600" fill="url(#sky)"/>

      <!-- CANONICAL BUILDING — real chapter SVGs, BIG + centred. HAT FOCUS: roof full,
           coat (wall+window) + boots (footing) dimmed to 0.4 IN PLACE (FR-006: nothing moves). -->
      <g id="building" transform="translate(360,20) scale(1.556)">
        <g id="layer-boots" opacity="0.4">
          <defs>
    <pattern id="footing-earth" width="10" height="10" patternUnits="userSpaceOnUse" patternTransform="rotate(45)">
      <line x1="0" y1="0" x2="0" y2="10" stroke="#7c6f5a" stroke-width="1" opacity="0.5"/>
    </pattern>
  </defs>
  <line x1="40" y1="300" x2="320" y2="300" stroke="#2d3a4a" stroke-width="2.5" stroke-linecap="round"/>
  <rect x="40" y="300" width="280" height="44" fill="url(#footing-earth)"/>
  <rect x="150" y="300" width="22" height="34" fill="#9aa7b3" stroke="#2d3a4a" stroke-width="2"/>
  <rect x="220" y="300" width="22" height="34" fill="#9aa7b3" stroke="#2d3a4a" stroke-width="2"/>
  <rect x="142" y="330" width="38" height="10" rx="1.5" fill="#7f8c99" stroke="#2d3a4a" stroke-width="2"/>
  <rect x="212" y="330" width="38" height="10" rx="1.5" fill="#7f8c99" stroke="#2d3a4a" stroke-width="2"/>
        </g>
        <g id="layer-coat" opacity="0.4">
          <defs>
    <pattern id="wall-insulation" width="12" height="18" patternUnits="userSpaceOnUse">
      <path d="M0 0 Q6 9 0 18 M12 0 Q6 9 12 18" fill="none" stroke="#c9a86a" stroke-width="1" opacity="0.55"/>
    </pattern>
  </defs>
  <rect x="150" y="120" width="92" height="180" fill="#f3ead6" stroke="#2d3a4a" stroke-width="2.5"/>
  <rect x="153" y="123" width="86" height="174" fill="url(#wall-insulation)"/>
  <rect x="148" y="116" width="96" height="8" rx="1" fill="#e3d4b4" stroke="#2d3a4a" stroke-width="2"/>
  <rect x="148" y="296" width="96" height="8" rx="1" fill="#e3d4b4" stroke="#2d3a4a" stroke-width="2"/>
          <rect x="186" y="150" width="46" height="96" fill="#cfe3ee" stroke="#2d3a4a" stroke-width="2.5"/>
  <polygon points="186,150 210,150 186,200" fill="#ffffff" opacity="0.35"/>
  <line x1="186" y1="198" x2="232" y2="198" stroke="#2d3a4a" stroke-width="1.8"/>
  <line x1="209" y1="150" x2="209" y2="246" stroke="#2d3a4a" stroke-width="1.8"/>
  <rect x="182" y="246" width="54" height="7" rx="1" fill="#dcc8a8" stroke="#2d3a4a" stroke-width="2"/>
        </g>
        <g id="layer-hat" opacity="1">
          <defs>
    <linearGradient id="roof-plane" x1="0" y1="0" x2="0" y2="1">
      <stop offset="0" stop-color="#c8714a"/>
      <stop offset="1" stop-color="#a8542f"/>
    </linearGradient>
  </defs>
  <path d="M196 118 L242 118 L242 150 Z" fill="#2d3a4a" opacity="0.08"/>
  <polygon points="196,62 110,120 290,120"
           fill="url(#roof-plane)" stroke="#2d3a4a" stroke-width="2.5" stroke-linejoin="round"/>
  <line x1="196" y1="62" x2="196" y2="70" stroke="#2d3a4a" stroke-width="3" stroke-linecap="round"/>
  <line x1="110" y1="120" x2="290" y2="120" stroke="#7a3c22" stroke-width="4" stroke-linecap="round"/>
  <path d="M290 120 l8 4 l-2 6 l-8 -4 z" fill="#a8542f" stroke="#2d3a4a" stroke-width="1.8" stroke-linejoin="round"/>
  <line x1="153" y1="105" x2="247" y2="105" stroke="#7a3c22" stroke-width="1" opacity="0.5"/>
  <line x1="170" y1="90" x2="222" y2="90" stroke="#7a3c22" stroke-width="1" opacity="0.5"/>
          <defs>
    <radialGradient id="sun-high-glow" cx="0.5" cy="0.5" r="0.5">
      <stop offset="0" stop-color="#f6c453"/>
      <stop offset="1" stop-color="#e8a02e"/>
    </radialGradient>
  </defs>
  <g transform="translate(300,46)">
    <g stroke="#e8a02e" stroke-width="2.5" stroke-linecap="round">
      <line x1="0" y1="-26" x2="0" y2="-17"/>
      <line x1="18" y1="-18" x2="12" y2="-12"/>
      <line x1="26" y1="0" x2="17" y2="0"/>
      <line x1="18" y1="18" x2="12" y2="12"/>
      <line x1="0" y1="26" x2="0" y2="17"/>
      <line x1="-18" y1="18" x2="-12" y2="12"/>
      <line x1="-26" y1="0" x2="-17" y2="0"/>
      <line x1="-18" y1="-18" x2="-12" y2="-12"/>
    </g>
    <circle r="14" fill="url(#sun-high-glow)" stroke="#c8801f" stroke-width="1.5"/>
  </g>
  <g stroke="#e8a02e" stroke-width="2.4" stroke-dasharray="7 5" stroke-linecap="round" opacity="0.95">
    <line x1="292" y1="68" x2="289" y2="116"/>
    <line x1="304" y1="66" x2="293" y2="116"/>
    <line x1="316" y1="70" x2="298" y2="117"/>
  </g>
  <line x1="282" y1="118" x2="302" y2="118" stroke="#a8542f" stroke-width="3.5" stroke-linecap="round"/>
  <path d="M242 122 L242 250 L226 250 L234 122 Z" fill="#2d3a4a" opacity="0.16"/>
          <defs>
    <radialGradient id="sun-low-glow" cx="0.5" cy="0.5" r="0.5">
      <stop offset="0" stop-color="#ffd98a"/>
      <stop offset="1" stop-color="#e6b455"/>
    </radialGradient>
  </defs>
  <g transform="translate(326,196)">
    <g stroke="#e6b455" stroke-width="2.5" stroke-linecap="round">
      <line x1="-24" y1="-10" x2="-15" y2="-7"/>
      <line x1="-26" y1="2" x2="-17" y2="2"/>
      <line x1="-24" y1="14" x2="-15" y2="10"/>
      <line x1="-14" y1="-20" x2="-9" y2="-13"/>
    </g>
    <circle r="13" fill="url(#sun-low-glow)" stroke="#c89436" stroke-width="1.5"/>
  </g>
  <g stroke="#e6b455" stroke-width="2.6" stroke-linecap="round" opacity="0.95">
    <line x1="300" y1="192" x2="206" y2="214"/>
    <line x1="300" y1="200" x2="210" y2="226"/>
    <line x1="300" y1="208" x2="214" y2="238"/>
  </g>
  <path d="M214 238 l-12 -1 l6 -7 z" fill="#e6b455" opacity="0.95"/>
  <ellipse cx="208" cy="244" rx="14" ry="3.5" fill="#ffd98a" opacity="0.55"/>
          <g stroke="#5b86a8" stroke-width="2.2" stroke-linecap="round" opacity="0.85">
    <line x1="150" y1="40" x2="146" y2="54"/>
    <line x1="180" y1="34" x2="176" y2="48"/>
    <line x1="210" y1="40" x2="206" y2="54"/>
    <line x1="240" y1="46" x2="236" y2="60"/>
    <line x1="120" y1="60" x2="116" y2="74"/>
    <line x1="270" y1="58" x2="266" y2="72"/>
  </g>
  <path d="M290 122 Q330 220 312 296"
        fill="none" stroke="#5b86a8" stroke-width="2.4" stroke-dasharray="2 6"
        stroke-linecap="round" opacity="0.9"/>
  <g fill="#5b86a8" opacity="0.9">
    <ellipse cx="312" cy="175" rx="2.4" ry="4" />
    <ellipse cx="322" cy="225" rx="2.4" ry="4" />
    <ellipse cx="316" cy="268" rx="2.4" ry="4" />
  </g>
  <g stroke="#5b86a8" stroke-width="2" stroke-linecap="round" opacity="0.85">
    <line x1="312" y1="298" x2="306" y2="291"/>
    <line x1="312" y1="298" x2="318" y2="291"/>
    <line x1="312" y1="298" x2="312" y2="289"/>
  </g>
  <path d="M246 301 q26 -7 52 -1" fill="none" stroke="#5b86a8" stroke-width="1.6"
        stroke-dasharray="3 4" opacity="0.7"/>
        </g>
      </g>

      <!-- WORDS in the LEFT sky -->
      <g id="words" transform="translate(34, 44)">
        <text x="0" y="0" font-size="14" letter-spacing="2" font-weight="800" fill="#8fb4e8">THE HAT - GUIDED VIEW</text>
        <text x="0" y="40" font-size="30" font-weight="800" fill="#ffffff">The summer sun is blocked</text>
        <text x="0" y="74" font-size="16" fill="#dfe6f0">The roof reaches past the wall — an</text>
        <text x="0" y="98" font-size="16" fill="#dfe6f0">overhang — and shades the window.</text>
        <text x="0" y="122" font-size="16" fill="#dfe6f0">The room stays cool, no machine.</text>
        <text x="0" y="170" font-size="14" letter-spacing="1" font-weight="800" fill="#8fb4e8">GUIDED VIEWS</text>
        <g transform="translate(0, 184)" font-size="14" font-weight="700">
          <rect width="180" height="36" rx="18" fill="#2563eb"/><text x="90" y="24" text-anchor="middle" fill="#ffffff">Everything</text>
          <rect y="44" width="180" height="36" rx="18" fill="#1a2138" stroke="#4a5a7a"/><text x="90" y="68" text-anchor="middle" fill="#cdd8ea">Bare wall</text>
          <rect y="88" width="180" height="36" rx="18" fill="#1a2138" stroke="#4a5a7a"/><text x="90" y="112" text-anchor="middle" fill="#cdd8ea">Roof line</text>
          <rect y="132" width="210" height="36" rx="18" fill="#1a2138" stroke="#4a5a7a"/><text x="105" y="156" text-anchor="middle" fill="#cdd8ea">How it sheds water</text>
        </g>
      </g>

      <!-- LAYER TOGGLES in the RIGHT sky -->
      <g id="toggles" transform="translate(1040, 44)" text-anchor="end">
        <text x="210" y="0" font-size="14" letter-spacing="1" font-weight="800" fill="#8fd0ff">TAKE IT APART - TAP A PART</text>
        <g font-size="14" font-weight="700">
          <g transform="translate(50, 22)"><rect width="160" height="34" rx="17" fill="#2563eb"/><circle cx="20" cy="17" r="6" fill="#fff"/><text x="100" y="22" text-anchor="middle" fill="#fff">roof + overhang</text></g>
          <g transform="translate(80, 64)"><rect width="130" height="34" rx="17" fill="#2563eb"/><circle cx="20" cy="17" r="6" fill="#fff"/><text x="85" y="22" text-anchor="middle" fill="#fff">summer sun</text></g>
          <g transform="translate(90, 106)"><rect width="120" height="34" rx="17" fill="#1a2138" stroke="#4a5a7a"/><circle cx="20" cy="17" r="6" fill="none" stroke="#4a5a7a"/><text x="80" y="22" text-anchor="middle" fill="#cdd8ea">winter sun</text></g>
          <g transform="translate(130, 148)"><rect width="80" height="34" rx="17" fill="#1a2138" stroke="#4a5a7a"/><circle cx="20" cy="17" r="6" fill="none" stroke="#4a5a7a"/><text x="55" y="22" text-anchor="middle" fill="#cdd8ea">rain</text></g>
          <g transform="translate(120, 190)"><rect width="90" height="34" rx="17" fill="#2563eb"/><circle cx="20" cy="17" r="6" fill="#fff"/><text x="60" y="22" text-anchor="middle" fill="#fff">walls</text></g>
          <g transform="translate(105, 232)"><rect width="105" height="34" rx="17" fill="#2563eb"/><circle cx="20" cy="17" r="6" fill="#fff"/><text x="68" y="22" text-anchor="middle" fill="#fff">footing</text></g>
        </g>
        <g transform="translate(70, 290)" font-size="14" font-weight="700">
          <rect width="44" height="30" rx="8" fill="#2563eb"/><text x="22" y="20" text-anchor="middle" fill="#fff">EN</text>
          <rect x="50" width="44" height="30" rx="8" fill="#1a2138" stroke="#4a5a7a"/><text x="72" y="20" text-anchor="middle" fill="#cdd8ea">ES</text>
          <rect x="100" width="44" height="30" rx="8" fill="#1a2138" stroke="#4a5a7a"/><text x="122" y="20" text-anchor="middle" fill="#cdd8ea">中文</text>
        </g>
      </g>

      <!-- numbered callouts ON the UI (red circles) -->
      <g font-size="14" font-weight="700" fill="#ffffff" text-anchor="middle">
        <circle cx="600" cy="120" r="14" fill="#dc2626"/><text x="600" y="125">1</text>
        <circle cx="120" cy="60" r="14" fill="#dc2626"/><text x="120" y="65">2</text>
        <circle cx="1160" cy="80" r="14" fill="#dc2626"/><text x="1160" y="85">3</text>
        <circle cx="600" cy="556" r="14" fill="#dc2626"/><text x="600" y="561">4</text>
      </g>

      <!-- BOTTOM overlaid bar -->
      <rect y="520" width="1280" height="80" fill="url(#botfade)"/>
      <g transform="translate(520, 548)" font-size="14" font-weight="700">
        <rect width="90" height="40" rx="9" fill="#1a2138" stroke="#5a6a8a"/><text x="45" y="26" text-anchor="middle" fill="#dfe6f0">Back</text>
        <g transform="translate(110, 14)"><circle cx="0" cy="6" r="6" fill="#2563eb"/><circle cx="22" cy="6" r="6" fill="#2563eb"/><circle cx="44" cy="6" r="6" fill="#39435f"/><circle cx="66" cy="6" r="6" fill="#39435f"/></g>
        <g transform="translate(200, 0)"><rect width="90" height="40" rx="9" fill="#1a2138" stroke="#5a6a8a"/><text x="45" y="26" text-anchor="middle" fill="#dfe6f0">Next</text></g>
      </g>
    </g>

    <use href="includes/footer-desktop.svg#site-footer" x="0" y="640"/>
  </g>

  <!-- ===================== MOBILE ===================== -->
  <g id="mobile" transform="translate(1360, 60)">
    <rect width="360" height="720" rx="8" fill="#0e0e1c" stroke="#2a2a44"/>
    <use href="includes/header-mobile.svg#mobile-header-group" x="0" y="0"/>
    <g font-size="14" font-weight="700">
      <rect x="14" y="82" width="100" height="32" rx="8" fill="#2563eb"/><text x="64" y="103" text-anchor="middle" fill="#fff">The Hat</text>
      <text x="138" y="103" fill="#9aa6b8">Coat</text><text x="202" y="103" fill="#9aa6b8">Boots</text>
    </g>
    <g transform="translate(0, 92)">
      <rect width="360" height="470" fill="url(#sky)"/>
      <g id="m-building" transform="translate(60,30) scale(0.667)">
        <g id="layer-boots" opacity="0.4">
          <defs>
    <pattern id="footing-earth" width="10" height="10" patternUnits="userSpaceOnUse" patternTransform="rotate(45)">
      <line x1="0" y1="0" x2="0" y2="10" stroke="#7c6f5a" stroke-width="1" opacity="0.5"/>
    </pattern>
  </defs>
  <line x1="40" y1="300" x2="320" y2="300" stroke="#2d3a4a" stroke-width="2.5" stroke-linecap="round"/>
  <rect x="40" y="300" width="280" height="44" fill="url(#footing-earth)"/>
  <rect x="150" y="300" width="22" height="34" fill="#9aa7b3" stroke="#2d3a4a" stroke-width="2"/>
  <rect x="220" y="300" width="22" height="34" fill="#9aa7b3" stroke="#2d3a4a" stroke-width="2"/>
  <rect x="142" y="330" width="38" height="10" rx="1.5" fill="#7f8c99" stroke="#2d3a4a" stroke-width="2"/>
  <rect x="212" y="330" width="38" height="10" rx="1.5" fill="#7f8c99" stroke="#2d3a4a" stroke-width="2"/>
        </g>
        <g id="layer-coat" opacity="0.4">
          <defs>
    <pattern id="wall-insulation" width="12" height="18" patternUnits="userSpaceOnUse">
      <path d="M0 0 Q6 9 0 18 M12 0 Q6 9 12 18" fill="none" stroke="#c9a86a" stroke-width="1" opacity="0.55"/>
    </pattern>
  </defs>
  <rect x="150" y="120" width="92" height="180" fill="#f3ead6" stroke="#2d3a4a" stroke-width="2.5"/>
  <rect x="153" y="123" width="86" height="174" fill="url(#wall-insulation)"/>
  <rect x="148" y="116" width="96" height="8" rx="1" fill="#e3d4b4" stroke="#2d3a4a" stroke-width="2"/>
  <rect x="148" y="296" width="96" height="8" rx="1" fill="#e3d4b4" stroke="#2d3a4a" stroke-width="2"/>
          <rect x="186" y="150" width="46" height="96" fill="#cfe3ee" stroke="#2d3a4a" stroke-width="2.5"/>
  <polygon points="186,150 210,150 186,200" fill="#ffffff" opacity="0.35"/>
  <line x1="186" y1="198" x2="232" y2="198" stroke="#2d3a4a" stroke-width="1.8"/>
  <line x1="209" y1="150" x2="209" y2="246" stroke="#2d3a4a" stroke-width="1.8"/>
  <rect x="182" y="246" width="54" height="7" rx="1" fill="#dcc8a8" stroke="#2d3a4a" stroke-width="2"/>
        </g>
        <g id="layer-hat" opacity="1">
          <defs>
    <linearGradient id="roof-plane" x1="0" y1="0" x2="0" y2="1">
      <stop offset="0" stop-color="#c8714a"/>
      <stop offset="1" stop-color="#a8542f"/>
    </linearGradient>
  </defs>
  <path d="M196 118 L242 118 L242 150 Z" fill="#2d3a4a" opacity="0.08"/>
  <polygon points="196,62 110,120 290,120"
           fill="url(#roof-plane)" stroke="#2d3a4a" stroke-width="2.5" stroke-linejoin="round"/>
  <line x1="196" y1="62" x2="196" y2="70" stroke="#2d3a4a" stroke-width="3" stroke-linecap="round"/>
  <line x1="110" y1="120" x2="290" y2="120" stroke="#7a3c22" stroke-width="4" stroke-linecap="round"/>
  <path d="M290 120 l8 4 l-2 6 l-8 -4 z" fill="#a8542f" stroke="#2d3a4a" stroke-width="1.8" stroke-linejoin="round"/>
  <line x1="153" y1="105" x2="247" y2="105" stroke="#7a3c22" stroke-width="1" opacity="0.5"/>
  <line x1="170" y1="90" x2="222" y2="90" stroke="#7a3c22" stroke-width="1" opacity="0.5"/>
          <defs>
    <radialGradient id="sun-high-glow" cx="0.5" cy="0.5" r="0.5">
      <stop offset="0" stop-color="#f6c453"/>
      <stop offset="1" stop-color="#e8a02e"/>
    </radialGradient>
  </defs>
  <g transform="translate(300,46)">
    <g stroke="#e8a02e" stroke-width="2.5" stroke-linecap="round">
      <line x1="0" y1="-26" x2="0" y2="-17"/>
      <line x1="18" y1="-18" x2="12" y2="-12"/>
      <line x1="26" y1="0" x2="17" y2="0"/>
      <line x1="18" y1="18" x2="12" y2="12"/>
      <line x1="0" y1="26" x2="0" y2="17"/>
      <line x1="-18" y1="18" x2="-12" y2="12"/>
      <line x1="-26" y1="0" x2="-17" y2="0"/>
      <line x1="-18" y1="-18" x2="-12" y2="-12"/>
    </g>
    <circle r="14" fill="url(#sun-high-glow)" stroke="#c8801f" stroke-width="1.5"/>
  </g>
  <g stroke="#e8a02e" stroke-width="2.4" stroke-dasharray="7 5" stroke-linecap="round" opacity="0.95">
    <line x1="292" y1="68" x2="289" y2="116"/>
    <line x1="304" y1="66" x2="293" y2="116"/>
    <line x1="316" y1="70" x2="298" y2="117"/>
  </g>
  <line x1="282" y1="118" x2="302" y2="118" stroke="#a8542f" stroke-width="3.5" stroke-linecap="round"/>
  <path d="M242 122 L242 250 L226 250 L234 122 Z" fill="#2d3a4a" opacity="0.16"/>
          <defs>
    <radialGradient id="sun-low-glow" cx="0.5" cy="0.5" r="0.5">
      <stop offset="0" stop-color="#ffd98a"/>
      <stop offset="1" stop-color="#e6b455"/>
    </radialGradient>
  </defs>
  <g transform="translate(326,196)">
    <g stroke="#e6b455" stroke-width="2.5" stroke-linecap="round">
      <line x1="-24" y1="-10" x2="-15" y2="-7"/>
      <line x1="-26" y1="2" x2="-17" y2="2"/>
      <line x1="-24" y1="14" x2="-15" y2="10"/>
      <line x1="-14" y1="-20" x2="-9" y2="-13"/>
    </g>
    <circle r="13" fill="url(#sun-low-glow)" stroke="#c89436" stroke-width="1.5"/>
  </g>
  <g stroke="#e6b455" stroke-width="2.6" stroke-linecap="round" opacity="0.95">
    <line x1="300" y1="192" x2="206" y2="214"/>
    <line x1="300" y1="200" x2="210" y2="226"/>
    <line x1="300" y1="208" x2="214" y2="238"/>
  </g>
  <path d="M214 238 l-12 -1 l6 -7 z" fill="#e6b455" opacity="0.95"/>
  <ellipse cx="208" cy="244" rx="14" ry="3.5" fill="#ffd98a" opacity="0.55"/>
          <g stroke="#5b86a8" stroke-width="2.2" stroke-linecap="round" opacity="0.85">
    <line x1="150" y1="40" x2="146" y2="54"/>
    <line x1="180" y1="34" x2="176" y2="48"/>
    <line x1="210" y1="40" x2="206" y2="54"/>
    <line x1="240" y1="46" x2="236" y2="60"/>
    <line x1="120" y1="60" x2="116" y2="74"/>
    <line x1="270" y1="58" x2="266" y2="72"/>
  </g>
  <path d="M290 122 Q330 220 312 296"
        fill="none" stroke="#5b86a8" stroke-width="2.4" stroke-dasharray="2 6"
        stroke-linecap="round" opacity="0.9"/>
  <g fill="#5b86a8" opacity="0.9">
    <ellipse cx="312" cy="175" rx="2.4" ry="4" />
    <ellipse cx="322" cy="225" rx="2.4" ry="4" />
    <ellipse cx="316" cy="268" rx="2.4" ry="4" />
  </g>
  <g stroke="#5b86a8" stroke-width="2" stroke-linecap="round" opacity="0.85">
    <line x1="312" y1="298" x2="306" y2="291"/>
    <line x1="312" y1="298" x2="318" y2="291"/>
    <line x1="312" y1="298" x2="312" y2="289"/>
  </g>
  <path d="M246 301 q26 -7 52 -1" fill="none" stroke="#5b86a8" stroke-width="1.6"
        stroke-dasharray="3 4" opacity="0.7"/>
        </g>
      </g>
      <text x="16" y="300" font-size="15" font-weight="800" fill="#ffffff">The summer sun is blocked</text>
      <text x="16" y="324" font-size="14" fill="#dfe6f0">The overhang shades the window.</text>
      <rect y="416" width="360" height="54" fill="url(#botfade)"/>
      <g transform="translate(40, 430)" font-size="14" font-weight="700">
        <rect width="80" height="34" rx="8" fill="#1a2138" stroke="#5a6a8a"/><text x="40" y="23" text-anchor="middle" fill="#dfe6f0">Back</text>
        <g transform="translate(200, 0)"><rect width="80" height="34" rx="8" fill="#1a2138" stroke="#5a6a8a"/><text x="40" y="23" text-anchor="middle" fill="#dfe6f0">Next</text></g>
      </g>
    </g>
    <use href="includes/footer-mobile.svg#mobile-bottom-nav" x="0" y="664"/>
  </g>

  <!-- ===================== ANNOTATIONS ===================== -->
  <g id="annotations" transform="translate(40, 740)">
    <rect width="1840" height="230" rx="10" fill="#e8d4b8" stroke="#b8a080"/>
    <!-- (1) US1 -->
    <circle cx="34" cy="40" r="14" fill="#dc2626"/><text x="34" y="45" font-size="14" font-weight="700" fill="#ffffff" text-anchor="middle">1</text>
    <a href="../spec.md#user-story-1"><rect x="58" y="28" width="64" height="24" rx="6" fill="#0891b2"/><text x="90" y="45" font-size="14" font-weight="700" fill="#ffffff" text-anchor="middle">US-001</text></a>
    <text x="200" y="45" font-size="15" font-weight="700" fill="#1f2937">[FR-001] [FR-007] One shared building fills the frame and dominates; chapters live in the NAVBAR. The /book index is this same viewer with no focus.</text>
    <!-- (2) US1 -->
    <circle cx="34" cy="110" r="14" fill="#dc2626"/><text x="34" y="115" font-size="14" font-weight="700" fill="#ffffff" text-anchor="middle">2</text>
    <a href="../spec.md#user-story-1"><rect x="58" y="98" width="64" height="24" rx="6" fill="#0891b2"/><text x="90" y="115" font-size="14" font-weight="700" fill="#ffffff" text-anchor="middle">US-001</text></a>
    <text x="200" y="115" font-size="15" font-weight="700" fill="#1f2937">[FR-006] HAT FOCUS = dim-in-place: roof region full opacity, walls + footing dimmed to 0.4 — NOTHING MOVES. Guided views + prose use the empty left sky.</text>
    <!-- (3) US2 -->
    <circle cx="34" cy="180" r="14" fill="#dc2626"/><text x="34" y="185" font-size="14" font-weight="700" fill="#ffffff" text-anchor="middle">3</text>
    <a href="../spec.md#user-story-2"><rect x="58" y="168" width="64" height="24" rx="6" fill="#0891b2"/><text x="90" y="185" font-size="14" font-weight="700" fill="#ffffff" text-anchor="middle">US-002</text></a>
    <text x="200" y="185" font-size="15" font-weight="700" fill="#1f2937">[FR-004] [FR-016] Layer toggles in the right sky (tap a part on/off). EN active; ES/中文 stub (049). Bottom bar = Back/Next + dots (no totem).</text>
    <!-- (4) US3 — same row, right half -->
    <circle cx="960" cy="180" r="14" fill="#dc2626"/><text x="960" y="185" font-size="14" font-weight="700" fill="#ffffff" text-anchor="middle">4</text>
    <a href="../spec.md#user-story-3"><rect x="984" y="168" width="64" height="24" rx="6" fill="#0891b2"/><text x="1016" y="185" font-size="14" font-weight="700" fill="#ffffff" text-anchor="middle">US-003</text></a>
    <text x="1060" y="185" font-size="15" font-weight="700" fill="#1f2937">[FR-014] Mobile reflows to a compact spread (no vertical totem), 44px targets.</text>
  </g>

  <text x="40" y="1060" font-size="18" font-weight="bold" fill="#4b5563">048:02 | Hat Chapter (full-bleed viewer) | ScriptHammer</text>
</svg>
